{"glyphs":{":":{"x_min":0,"x_max":333,"ha":333,"o":"m 86 -2 q 62 -2 62 23 q 62 41 77 61 q 93 80 114 94 q 135 108 151 108 q 166 109 166 91 q 166 77 153 54 q 139 32 120 15 q 101 -2 86 -2 z m 183 208 q 171 208 165 216 q 159 224 159 237 q 159 252 174 274 q 189 296 209 312 q 230 328 244 328 q 254 328 260 322 q 266 315 266 304 q 266 291 252 267 q 238 243 219 226 q 199 208 183 208 z"},"$":{"x_min":0,"x_max":469,"ha":469,"o":"m 313 539 l 376 546 q 386 573 393 587 q 399 602 412 615 q 425 629 442 629 q 451 629 451 622 q 451 619 440 594 q 428 569 420 548 q 467 547 488 537 q 509 528 509 497 q 509 458 474 442 q 462 437 440 430 q 418 424 415 424 q 409 424 409 428 q 409 430 411 432 q 420 437 425 440 q 429 442 429 448 q 429 454 416 456 q 403 459 384 459 l 345 354 q 453 342 453 265 q 453 226 433 194 q 412 163 371 140 q 330 117 267 103 q 259 80 251 49 q 242 19 237 6 q 231 -7 224 -7 q 217 -7 212 6 q 207 20 207 37 q 207 62 220 96 q 196 94 158 94 q 147 63 140 30 q 132 -4 128 -4 q 122 -4 115 18 q 108 39 108 49 q 108 58 120 102 q 78 116 68 120 q 57 125 51 133 q 44 141 44 157 q 44 197 90 231 q 107 214 118 207 q 129 200 152 195 l 193 317 q 164 318 143 324 q 123 330 111 345 q 99 360 99 386 q 99 400 105 419 q 112 438 123 454 q 145 486 180 502 q 214 518 273 530 q 276 537 279 546 q 282 555 285 561 q 287 567 294 580 q 300 593 304 601 q 337 606 337 595 q 337 592 334 585 q 331 577 323 562 q 316 547 313 539 z m 214 376 l 241 450 q 201 440 179 426 q 157 413 157 398 q 157 379 214 376 z m 344 461 l 280 456 l 249 371 l 309 362 z m 329 303 l 298 204 q 341 220 361 233 q 381 246 381 263 q 381 281 369 288 q 358 295 329 303 z m 291 308 l 229 313 l 188 190 q 194 189 209 189 q 233 189 253 194 z"},"?":{"x_min":0,"x_max":323,"ha":323,"o":"m 147 532 q 147 528 153 524 q 160 521 165 518 q 186 510 186 498 q 186 491 183 491 q 181 491 173 494 q 166 498 163 498 q 146 502 125 503 q 104 503 96 507 q 89 510 89 527 q 89 543 101 571 q 114 599 128 613 q 139 623 167 635 q 195 646 229 655 q 264 663 291 663 q 335 663 361 638 q 386 612 386 564 q 386 540 376 507 q 367 475 348 438 q 330 402 304 366 q 279 330 245 294 q 217 266 201 244 q 186 223 186 205 q 186 204 187 200 q 188 196 188 193 q 188 189 189 187 q 189 185 189 180 q 189 159 174 159 q 161 159 147 181 q 133 202 133 229 q 133 266 173 318 q 213 369 302 446 q 330 470 342 484 q 353 498 353 518 q 353 542 336 555 q 319 568 285 568 q 261 568 227 562 q 192 556 170 548 q 147 539 147 532 z m 101 3 q 92 3 75 18 q 57 33 57 56 q 57 74 66 97 q 76 121 88 138 q 101 156 109 156 q 117 156 127 146 q 138 136 144 123 q 151 109 151 96 q 151 83 143 60 q 134 37 123 20 q 111 3 101 3 z"},"<":{"x_min":0,"x_max":667,"ha":667,"o":"m 618 131 l 618 47 l 84 272 l 84 341 l 618 565 l 618 482 l 188 307 z"},"'":{"x_min":0,"x_max":219,"ha":219,"o":"m 132 493 l 132 609 l 204 609 l 204 493 l 192 362 l 147 362 z"},"=":{"x_min":0,"x_max":667,"ha":667,"o":"m 84 384 l 84 461 l 618 461 l 618 384 z m 84 154 l 84 231 l 618 231 l 618 154 z"},"a":{"x_min":0,"x_max":406,"ha":406,"o":"m 65 241 q 139 309 209 341 q 279 374 317 374 q 327 374 336 365 q 345 357 350 346 q 355 334 355 329 q 355 320 348 316 q 341 312 324 306 q 328 298 333 286 q 338 274 341 266 q 344 259 344 253 q 344 241 321 209 q 297 177 287 162 q 278 147 278 125 q 278 89 311 89 q 345 89 418 153 l 418 123 q 294 -14 241 -14 q 222 -14 214 -2 q 206 11 206 35 q 206 74 234 147 q 163 68 128 34 q 93 1 71 1 q 60 1 44 20 q 28 38 15 68 q 3 97 3 129 q 3 152 7 167 q 12 183 24 199 q 37 215 65 241 z m 299 295 q 172 237 118 196 q 64 156 64 113 q 64 97 69 87 q 75 77 84 77 q 89 77 103 84 q 154 114 197 163 q 239 211 299 295 z"},"L":{"x_min":0,"x_max":594,"ha":594,"o":"m 525 370 l 540 355 q 500 305 470 282 q 440 259 426 259 q 414 259 414 280 q 414 332 483 441 q 541 535 541 546 q 541 555 533 555 q 520 555 464 494 q 409 432 328 320 q 236 195 202 141 q 267 135 309 125 q 351 115 430 92 q 509 70 547 66 q 501 14 484 -5 q 466 -24 457 -28 q 442 -34 414 -29 q 385 -23 322 -7 q 260 9 205 20 q 151 31 106 31 q 81 31 62 25 q 44 19 11 6 q -21 -8 -34 -8 q -53 -8 -53 8 q -53 17 -47 28 q -31 54 -16 77 q 0 101 17 114 q 34 127 66 134 q 98 142 151 142 q 230 264 299 359 q 368 453 425 518 q 481 583 523 616 q 566 650 591 650 q 608 650 618 640 q 628 630 628 613 q 628 554 525 370 z"},"3":{"x_min":0,"x_max":510,"ha":510,"o":"m 156 447 q 142 455 136 465 q 130 475 130 497 q 130 528 163 554 q 195 579 255 594 q 314 608 388 608 q 467 608 506 579 q 546 550 546 494 q 546 461 531 435 q 516 410 482 388 q 444 365 226 320 q 292 314 338 302 q 384 290 411 264 q 438 238 438 194 q 438 146 396 99 q 354 51 280 21 q 205 -10 114 -10 q 48 -10 12 10 q -24 31 -24 62 q -24 80 -12 100 q 0 121 16 135 q 32 150 43 150 q 50 150 50 145 q 50 142 45 132 q 40 127 40 121 q 40 109 63 101 q 85 93 121 93 q 170 93 216 104 q 262 115 298 133 q 334 150 356 170 q 377 190 377 207 q 377 241 334 253 q 291 265 203 265 q 173 265 146 260 q 118 255 119 255 q 112 255 112 267 q 112 286 122 316 q 133 346 147 355 q 156 361 215 371 q 274 381 317 390 q 360 399 419 421 q 456 435 475 454 q 493 473 493 488 q 493 526 399 526 q 353 526 310 520 q 266 515 241 507 q 217 499 217 491 q 217 485 222 481 q 227 477 232 475 q 237 473 249 469 q 252 468 255 465 q 258 462 258 458 q 258 444 156 447 z"},";":{"x_min":0,"x_max":333,"ha":333,"o":"m 186 199 q 175 199 167 208 q 158 216 158 228 q 158 244 174 266 q 189 289 210 305 q 231 322 244 322 q 253 322 260 315 q 266 309 266 296 q 266 280 253 257 q 240 234 221 217 q 202 199 186 199 z m 89 -9 q 59 -7 59 16 q 59 29 73 50 q 88 71 108 87 q 128 103 144 103 q 163 103 163 80 q 163 61 139 19 q 115 -22 88 -43 q 77 -51 70 -53 q 62 -55 62 -49 q 62 -46 72 -36 q 81 -25 89 -9 z"},"J":{"x_min":0,"x_max":375,"ha":375,"o":"m 382 119 l 252 46 q 209 -27 166 -92 q 123 -156 89 -198 q 56 -241 31 -263 q 7 -285 -5 -285 q -21 -285 -30 -275 q -40 -264 -40 -250 q -40 -197 19 -118 q 79 -39 207 51 q 263 158 299 245 q 335 333 354 395 q 373 457 381 494 q 388 532 388 542 q 388 563 372 563 q 359 563 333 548 q 308 533 278 503 q 248 473 222 433 q 196 394 175 345 q 154 297 142 256 q 131 215 131 190 q 131 184 133 162 q 137 169 144 179 q 150 188 160 199 q 169 209 180 216 q 187 221 195 224 q 204 227 204 223 q 204 220 176 186 q 148 152 128 125 q 116 109 97 96 q 77 82 65 82 q 50 82 46 96 q 41 109 41 139 q 41 211 66 299 q 90 387 132 453 q 166 506 214 549 q 263 591 309 615 q 355 639 382 639 q 414 639 432 619 q 449 599 449 563 q 449 545 445 523 q 441 501 435 479 q 428 457 413 407 q 397 357 392 341 q 377 291 352 238 q 328 185 282 97 l 382 151 z"},"V":{"x_min":0,"x_max":427,"ha":427,"o":"m 353 552 q 353 547 342 530 q 331 512 309 477 q 287 443 255 389 q 224 336 191 271 q 153 196 136 154 q 119 111 119 80 q 119 56 145 37 q 176 62 207 95 q 237 129 266 170 q 296 212 335 275 q 374 339 404 392 q 402 396 401 401 q 399 405 399 408 q 399 431 408 451 q 417 471 431 490 q 445 509 473 544 q 480 553 491 553 q 509 553 509 531 q 509 508 490 460 q 472 412 437 347 q 401 282 348 202 q 295 122 228 34 q 160 -54 131 -54 q 114 -54 93 -36 q 72 -18 57 14 q 42 46 42 82 q 42 104 51 137 q 60 171 79 218 q 99 265 123 311 q 148 359 168 391 q 187 423 211 462 q 236 500 236 504 q 236 511 226 511 q 198 511 151 482 q 104 454 28 395 q -1 373 -9 366 q -16 359 -16 355 q -16 349 -7 349 q -3 349 20 352 q 42 355 55 355 q 77 355 77 347 q 77 340 68 336 q 59 333 43 329 q 27 325 0 318 q -29 310 -62 295 q -95 281 -100 281 q -109 281 -112 288 q -114 294 -114 310 q -114 379 -91 417 q -68 455 -9 496 q 59 543 120 574 q 182 605 226 619 q 271 634 292 634 q 312 634 333 607 q 353 581 353 552 z"},"\"":{"x_min":0,"x_max":302,"ha":302,"o":"m 108 493 l 108 609 l 181 609 l 181 493 l 166 361 l 123 361 z m 237 493 l 237 609 l 311 609 l 311 493 l 296 361 l 253 361 z"},"7":{"x_min":0,"x_max":437,"ha":437,"o":"m 235 67 l 242 58 q 199 25 167 8 q 135 -10 113 -10 q 93 -10 83 3 q 73 16 73 37 q 73 78 111 153 q 148 228 228 321 q 307 414 422 501 q 359 510 296 510 q 242 510 211 502 q 180 495 151 482 q 141 478 128 469 q 116 461 114 461 q 109 461 103 466 q 97 471 97 478 q 97 488 118 516 q 139 544 150 563 q 164 587 179 597 q 191 604 249 610 q 307 616 392 616 q 406 616 425 615 q 444 615 467 613 q 489 611 499 611 q 509 590 514 567 q 519 543 519 529 q 519 516 515 508 q 511 501 499 491 q 476 471 451 447 q 426 424 393 388 q 359 353 329 313 q 298 273 268 225 q 238 178 221 139 q 205 100 205 74 q 205 61 214 61 q 223 61 235 67 z"},"S":{"x_min":0,"x_max":646,"ha":646,"o":"m 513 141 q 501 164 477 182 q 452 200 422 211 q 391 222 358 227 q 259 242 174 291 q 167 295 158 308 q 150 320 150 332 q 150 375 164 418 q 179 461 201 486 q 237 526 331 557 q 425 587 543 587 q 613 587 652 576 q 690 565 690 543 q 690 506 680 486 q 670 466 658 460 q 647 453 618 442 q 587 431 565 419 q 542 408 526 397 q 510 386 506 386 q 501 386 501 390 q 501 398 518 415 q 536 432 561 445 q 588 459 588 463 q 588 469 558 469 q 468 469 391 453 q 314 437 270 411 q 226 384 226 357 q 226 340 244 333 q 263 326 325 309 q 388 292 437 271 q 508 241 542 208 q 576 175 576 135 q 576 107 563 79 q 549 51 523 27 q 498 4 464 -11 q 435 -23 391 -34 q 348 -45 297 -51 q 246 -57 199 -57 q 114 -57 62 -41 q 10 -25 10 8 q 10 22 27 53 q 45 84 69 95 q 90 104 109 105 q 129 106 129 100 q 129 99 127 97 q 126 96 124 95 q 122 94 120 93 q 110 89 104 87 q 98 84 94 82 q 91 80 91 76 q 91 66 192 66 q 280 66 336 72 q 392 79 435 95 q 478 112 513 141 z"},"}":{"x_min":0,"x_max":417,"ha":417,"o":"m 82 659 l 109 659 q 136 659 155 657 q 174 654 190 646 q 216 635 232 613 q 248 591 256 558 q 263 524 263 481 q 263 380 267 335 q 271 289 292 260 q 313 230 365 229 l 365 149 q 313 147 292 118 q 271 89 267 43 q 263 -2 263 -102 q 263 -146 256 -179 q 248 -212 231 -235 q 215 -257 190 -268 q 172 -276 154 -278 q 136 -280 109 -280 l 82 -280 l 82 -203 l 97 -203 q 132 -203 150 -196 q 167 -188 174 -167 q 181 -146 181 -103 l 181 -31 q 181 64 202 114 q 223 164 283 189 q 254 203 235 220 q 215 238 203 263 q 191 288 186 323 q 181 359 181 410 l 181 481 q 181 524 174 545 q 167 566 150 574 q 132 582 97 582 l 82 582 z"},"Z":{"x_min":0,"x_max":542,"ha":542,"o":"m 77 -280 l 60 -264 q 45 -249 45 -231 q 45 -214 68 -179 q 91 -144 139 -97 q 186 -51 259 0 q 331 51 423 97 q 417 133 404 145 q 390 157 356 157 q 328 157 258 128 q 188 98 134 54 q 113 37 105 37 q 95 37 95 53 q 95 81 111 116 q 127 151 150 171 q 182 199 248 229 q 320 263 379 303 q 438 343 470 378 q 503 413 503 430 q 503 449 466 449 q 418 449 354 428 q 290 407 211 362 q 133 317 47 251 q 51 319 59 359 q 66 398 83 423 q 100 448 126 467 q 153 486 207 516 q 354 599 454 599 q 515 599 550 569 q 585 540 585 485 q 585 447 569 415 q 553 382 523 354 q 492 326 451 301 q 411 276 352 247 q 417 245 446 219 q 475 192 484 126 l 548 153 l 548 116 l 481 85 q 462 2 412 -67 q 363 -137 302 -186 q 240 -235 184 -262 q 127 -289 99 -289 q 87 -289 77 -280 z m 410 47 q 353 22 299 -18 q 246 -58 207 -97 q 167 -136 142 -169 q 117 -203 117 -213 q 117 -222 131 -222 q 153 -222 209 -188 q 266 -153 329 -85 q 371 -40 385 -12 q 400 15 410 47 z"},"x":{"x_min":0,"x_max":292,"ha":292,"o":"m 104 154 l 104 269 q 86 265 70 253 q 53 242 35 226 q 17 209 12 209 q 7 209 7 223 q 7 237 36 273 q 65 309 100 340 q 135 370 151 370 q 160 370 167 359 q 174 349 174 330 q 174 318 173 308 q 173 297 172 280 q 172 263 171 231 q 279 346 299 346 q 305 346 308 342 q 312 337 312 330 q 312 314 286 281 q 260 247 251 247 q 239 247 232 251 l 170 172 q 171 129 177 108 q 184 87 201 87 q 216 87 235 102 q 255 116 299 156 l 299 122 q 199 -16 157 -16 q 131 -16 120 11 q 109 39 106 95 q 89 78 66 53 q 43 28 32 17 q 22 7 13 0 q 5 -7 -2 -7 q -9 -7 -9 5 q -9 24 12 59 q 33 93 42 93 q 43 93 46 92 q 50 91 50 91 z"},")":{"x_min":0,"x_max":333,"ha":333,"o":"m 194 583 q 189 573 185 573 q 183 573 183 578 q 183 583 183 586 q 183 615 198 633 q 212 651 230 651 q 246 651 261 633 q 276 616 286 582 q 296 549 296 504 q 296 461 288 417 q 280 372 264 322 q 248 272 224 222 q 175 114 137 59 q 99 4 73 4 q 62 4 54 13 q 47 21 47 34 q 47 44 53 54 q 97 124 126 184 q 156 244 176 302 q 196 360 205 407 q 214 454 214 495 q 214 529 208 553 q 203 578 194 583 z"},"&":{"x_min":0,"x_max":490,"ha":490,"o":"m 178 4 q 144 4 111 25 q 79 47 60 85 q 40 123 40 170 q 40 232 88 284 q 135 335 228 385 q 223 416 223 428 q 223 478 244 521 q 265 564 298 595 q 331 625 368 642 q 405 658 439 658 q 478 658 502 639 q 526 621 526 591 q 526 551 506 520 q 485 489 454 464 q 422 439 376 411 q 331 382 321 375 q 336 313 368 249 q 412 279 437 302 q 462 326 479 346 q 496 366 502 366 q 506 366 509 355 q 512 345 512 332 q 512 302 501 276 q 491 250 471 223 q 451 197 422 167 l 454 132 q 458 136 465 143 q 471 150 475 153 q 478 156 482 156 q 487 156 490 152 q 492 148 492 143 q 492 123 464 76 q 436 29 417 29 q 407 29 398 37 q 389 45 375 63 q 362 81 354 93 q 298 50 254 27 q 210 4 178 4 z m 310 467 l 310 447 q 380 486 419 530 q 458 574 458 600 q 458 622 436 622 q 416 622 385 598 q 354 575 332 539 q 310 503 310 467 z m 244 321 q 208 296 180 267 q 152 238 135 211 q 119 184 119 166 q 119 130 152 130 q 176 130 217 146 q 258 162 299 192 q 277 242 244 321 z"},"_":{"x_min":0,"x_max":500,"ha":500,"o":"m -6 -125 l -6 -75 l 506 -75 l 506 -125 z"},"v":{"x_min":0,"x_max":323,"ha":323,"o":"m 72 153 l 63 112 q 61 104 61 94 q 61 68 83 68 q 104 68 185 150 q 186 182 209 223 q 232 265 260 296 q 288 327 302 327 q 323 327 323 299 q 323 282 315 257 q 307 232 291 204 q 274 175 251 145 q 263 123 276 123 q 287 123 300 131 q 312 138 332 154 l 332 121 q 305 100 289 92 q 273 84 248 84 q 238 84 213 97 q 163 44 132 18 q 101 -8 81 -8 q 47 -8 24 32 q 0 73 0 121 q 0 186 73 277 q 95 304 109 314 q 122 324 139 324 q 154 324 167 319 q 180 313 180 306 q 180 282 147 235 q 115 188 72 153 z"},"O":{"x_min":0,"x_max":573,"ha":573,"o":"m 377 501 q 390 504 404 508 q 417 511 431 514 q 445 516 458 516 q 486 516 507 503 q 527 491 537 469 q 547 447 547 422 q 547 382 532 331 q 518 280 491 228 q 464 175 428 128 q 379 64 310 26 q 241 -13 183 -13 q 141 -13 108 10 q 76 33 57 77 q 39 122 39 181 q 39 261 83 342 q 126 422 193 487 q 260 552 328 592 q 396 631 438 631 q 473 631 491 610 q 510 588 526 541 q 480 540 447 530 q 413 521 377 501 z m 254 402 q 220 365 185 307 q 150 250 128 194 q 107 138 107 109 q 107 36 175 36 q 222 36 297 100 q 372 164 427 254 q 483 344 483 418 q 483 472 440 472 q 407 472 359 446 q 311 419 267 371 q 251 354 205 285 q 214 331 254 402 z"},"(":{"x_min":0,"x_max":333,"ha":333,"o":"m 213 72 q 222 86 226 86 q 229 86 230 76 q 232 67 232 53 q 232 28 217 13 q 203 -2 182 4 q 161 10 144 38 q 127 66 115 117 q 103 167 103 221 q 103 306 135 386 q 166 466 211 528 q 255 591 297 629 q 339 668 353 668 q 359 668 363 660 q 366 652 366 641 q 366 615 325 570 q 260 499 220 403 q 179 307 179 213 q 179 170 188 131 q 198 92 213 72 z"},"C":{"x_min":0,"x_max":604,"ha":604,"o":"m 616 156 l 616 124 q 534 33 466 -27 q 397 -86 332 -118 q 266 -150 205 -150 q 152 -150 115 -129 q 77 -108 57 -68 q 38 -27 38 28 q 38 71 52 120 q 66 168 92 218 q 119 268 157 320 q 195 373 247 431 q 301 491 353 535 q 405 579 448 604 q 490 628 527 641 q 563 653 587 653 q 611 653 628 641 q 646 629 655 607 q 664 584 664 555 q 664 500 626 432 q 589 365 533 302 q 477 239 426 199 q 375 159 352 159 q 337 159 324 171 q 311 183 311 198 q 311 226 341 266 q 370 305 405 338 q 440 371 447 371 q 450 371 450 368 q 450 364 445 353 q 440 342 440 340 q 440 336 443 336 q 451 336 491 380 q 530 425 563 478 q 596 532 596 566 q 596 580 590 588 q 584 595 572 595 q 538 595 468 540 q 398 484 325 399 q 252 313 204 222 q 155 130 155 61 q 155 21 167 -6 q 179 -33 202 -47 q 225 -62 258 -62 q 329 -62 418 -7 q 508 48 616 156 z"},"W":{"x_min":0,"x_max":698,"ha":698,"o":"m 43 79 q 43 90 48 111 q 53 131 61 142 q 82 172 100 197 q 117 222 131 240 q 145 258 158 272 q 242 362 278 407 q 314 452 314 469 q 314 481 303 488 q 292 494 275 494 q 239 494 184 469 q 129 443 56 402 q -17 361 -25 361 q -38 361 -38 380 q -38 396 -28 426 q -20 458 -15 476 q -10 494 1 508 q 13 522 39 539 q 66 555 121 584 l 126 566 q 172 584 213 594 q 253 604 282 604 q 339 604 363 585 q 386 565 386 501 q 386 466 376 442 q 366 419 336 377 q 268 278 234 240 q 135 127 135 108 q 135 97 149 97 q 161 97 182 114 q 204 130 234 162 q 264 193 318 251 q 375 312 414 360 q 454 407 479 440 q 504 474 506 476 q 532 508 560 529 q 588 550 596 550 q 602 550 610 539 q 618 528 623 514 q 629 499 629 491 q 629 489 617 468 q 605 446 592 424 q 578 401 548 354 q 481 251 446 181 q 411 111 411 89 q 411 81 417 74 q 422 68 428 68 q 436 68 457 80 q 477 93 502 116 q 535 147 562 181 q 588 215 615 256 q 641 298 662 335 q 682 372 703 413 l 695 438 q 693 444 693 453 q 693 460 722 501 q 750 541 760 541 q 770 541 777 526 q 784 511 784 496 q 784 479 769 430 q 754 380 723 310 q 691 240 645 167 q 605 104 559 58 q 514 13 477 -9 q 440 -31 423 -31 q 403 -31 381 -13 q 363 2 355 15 q 348 27 345 42 q 343 57 343 76 q 343 118 366 173 q 389 229 434 312 q 292 139 214 61 q 136 -18 100 -18 q 76 -18 60 10 q 43 39 43 79 z"},"A":{"x_min":0,"x_max":635,"ha":635,"o":"m 435 201 q 376 199 349 199 q 307 199 233 201 q 217 184 195 161 q 172 138 152 118 q 132 98 118 84 q 104 70 94 61 q 40 8 24 -8 q 7 -24 -11 -37 q -29 -50 -44 -50 q -61 -50 -61 -34 q -61 -17 -37 19 q -12 54 19 82 q 49 109 69 109 q 74 109 84 104 l 177 203 q 159 206 131 206 q 103 207 93 210 q 83 214 83 227 q 83 248 128 293 q 152 318 174 325 q 195 332 256 332 q 220 327 205 321 q 190 314 189 301 q 203 301 215 301 q 227 301 246 301 q 266 301 275 302 q 355 380 420 438 q 486 496 558 548 q 631 600 713 643 q 729 622 729 599 q 729 580 717 555 q 704 530 664 462 q 624 393 582 316 q 596 316 605 316 q 614 315 624 315 q 652 315 658 314 q 664 313 664 304 q 664 300 656 290 q 649 280 630 257 q 611 234 593 210 l 521 204 q 464 97 464 83 q 464 63 485 63 q 495 63 570 106 l 566 80 q 526 50 504 32 q 481 15 465 4 q 449 -8 435 -13 q 422 -19 408 -19 q 392 -19 376 -4 q 361 11 361 38 q 361 49 369 70 q 377 91 387 110 q 396 129 435 201 z m 343 312 l 501 315 q 529 362 546 392 q 563 421 584 455 q 605 490 620 514 q 635 538 653 568 q 618 546 581 519 q 544 492 499 454 q 453 417 417 384 q 381 352 343 312 z"},"f":{"x_min":0,"x_max":271,"ha":271,"o":"m 280 154 l 280 120 q 250 91 235 78 q 220 64 194 51 q 194 6 189 -25 q 185 -56 170 -91 q 155 -125 123 -166 q 92 -207 62 -228 q 31 -250 14 -250 q -5 -250 -21 -219 q -37 -188 -37 -141 q -37 -97 -22 -47 q -7 2 25 80 q 1 111 1 142 q 1 167 14 180 q 26 193 50 204 q 67 231 82 250 q 98 269 124 300 q 175 425 243 544 q 262 577 271 589 q 279 600 288 600 q 296 600 303 588 q 309 576 309 556 q 309 532 304 512 q 299 492 289 472 q 280 452 263 423 q 246 395 242 388 q 218 345 187 293 q 156 241 138 210 q 121 180 113 165 q 139 142 155 125 q 170 109 181 86 q 198 92 211 101 q 225 110 244 125 q 262 141 280 154 z m 134 23 l 133 33 q 119 32 111 32 q 103 33 92 37 q 81 40 74 43 q 68 46 61 49 q 24 -42 24 -102 q 24 -132 33 -153 q 42 -174 54 -174 q 67 -174 86 -151 q 105 -129 120 -85 q 134 -41 134 23 z"},"Q":{"x_min":0,"x_max":646,"ha":646,"o":"m 135 341 l 135 384 q 135 421 147 445 q 159 469 196 492 q 232 516 303 547 q 382 583 434 599 q 485 615 540 615 q 603 615 637 586 q 671 557 671 504 q 671 344 256 119 q 299 112 357 101 q 414 89 449 83 q 483 78 520 78 q 566 78 610 91 q 580 25 567 3 q 554 -20 539 -31 q 523 -41 498 -41 q 444 -41 401 -34 q 358 -28 288 -14 q 218 0 180 7 q 141 13 103 11 q 89 2 81 -3 q 72 -8 64 -11 q 56 -15 49 -15 q 29 -15 29 7 q 29 26 43 55 q 58 84 71 96 q 85 110 113 116 q 141 122 190 124 q 295 184 368 235 q 442 287 501 346 q 536 381 559 414 q 583 447 593 469 q 603 491 603 500 q 603 520 570 520 q 522 520 468 504 q 414 488 355 458 q 296 427 222 379 q 255 382 287 382 q 324 382 324 368 q 324 363 314 359 q 303 356 278 351 q 263 349 248 343 q 232 336 212 327 q 191 317 180 312 q 169 308 162 308 q 135 308 135 341 z"},"w":{"x_min":0,"x_max":490,"ha":490,"o":"m 263 96 q 263 74 280 74 q 301 74 355 147 q 353 161 353 165 q 353 191 374 229 q 395 268 422 296 q 450 324 464 324 q 481 324 481 283 q 481 250 467 217 q 452 184 425 150 q 429 146 435 141 q 440 136 446 133 q 452 130 459 130 q 475 130 500 156 l 500 121 q 461 81 433 81 q 417 81 407 85 q 397 89 383 100 q 293 -8 246 -8 q 228 -8 218 6 q 207 19 207 43 q 207 55 217 131 q 198 109 172 79 q 147 49 131 33 q 116 18 102 9 q 89 0 75 0 q 62 0 44 17 q 25 33 13 61 q 0 88 0 120 q 0 151 9 173 q 18 195 49 239 q 77 278 99 303 q 121 328 139 341 q 157 355 168 355 q 175 355 186 352 q 197 349 205 343 q 214 338 214 332 q 214 313 198 285 q 181 257 149 222 q 117 187 75 150 q 64 116 64 95 q 64 88 68 82 q 72 76 78 76 q 98 76 155 139 q 212 201 305 328 q 309 333 320 333 q 332 333 342 328 q 352 322 352 313 q 352 308 326 256 q 301 204 282 161 q 263 118 263 96 z"},"-":{"x_min":0,"x_max":510,"ha":510,"o":"m 336 287 q 353 291 356 291 q 359 292 382 287 q 390 286 395 285 q 400 284 404 282 q 408 281 408 279 q 408 274 382 252 q 355 230 329 223 q 312 218 270 214 q 227 210 174 210 q 146 210 132 212 q 118 214 118 222 q 118 226 125 237 q 132 247 144 259 q 177 292 264 292 q 279 292 336 287 z"},"E":{"x_min":0,"x_max":615,"ha":615,"o":"m 651 615 l 651 582 q 651 562 643 556 q 635 551 584 527 q 533 504 486 472 q 504 499 519 511 q 534 524 559 543 q 537 552 498 552 q 438 552 367 528 q 297 504 248 471 q 199 438 199 415 q 199 403 214 396 q 229 388 262 384 q 295 380 344 378 q 394 377 466 377 q 519 377 534 373 q 549 369 549 355 q 549 337 531 314 q 513 291 484 286 q 438 279 412 274 q 385 269 348 256 q 311 244 266 221 q 199 186 162 150 q 124 114 124 86 q 124 62 151 49 q 178 35 228 35 q 401 35 581 191 q 582 143 571 107 q 559 70 524 37 q 495 9 438 -16 q 382 -42 315 -57 q 249 -72 190 -72 q 122 -72 78 -39 q 33 -7 33 47 q 33 86 55 125 q 76 163 121 198 q 165 234 233 263 q 301 292 390 308 q 403 311 403 316 q 403 322 388 323 q 373 324 333 325 q 293 325 263 328 q 233 331 199 341 q 165 352 146 378 q 127 405 127 438 q 127 480 157 522 q 188 565 243 599 q 298 633 376 654 q 455 675 548 675 q 602 675 623 669 q 644 663 647 653 q 651 643 651 615 z"},"s":{"x_min":0,"x_max":312,"ha":312,"o":"m 6 140 l 6 152 q 132 285 179 338 q 190 398 231 398 q 241 398 253 392 l 256 383 q 254 377 254 366 q 254 357 261 332 q 268 307 272 290 q 276 272 276 251 q 276 219 261 189 q 247 160 219 133 q 191 105 147 77 q 165 74 175 74 q 195 74 218 84 q 241 94 265 111 q 290 128 322 155 l 322 122 q 259 61 210 30 q 161 -2 125 -2 q 79 -2 40 37 q 17 61 11 82 q 6 104 6 140 z m 188 215 l 179 286 q 149 252 50 155 q 79 148 90 138 q 101 127 120 96 q 153 110 171 134 q 189 157 189 198 q 189 203 189 207 q 188 211 188 215 z"},">":{"x_min":0,"x_max":667,"ha":667,"o":"m 84 482 l 84 565 l 618 341 l 618 272 l 84 47 l 84 131 l 514 306 z"},"l":{"x_min":0,"x_max":229,"ha":229,"o":"m 241 159 l 241 123 q 139 -12 75 -12 q 41 -12 21 26 q 1 63 1 125 q 1 175 24 243 q 48 312 87 383 q 126 453 169 506 q 211 558 247 579 q 262 588 270 588 q 280 588 284 579 q 287 570 287 548 q 287 480 232 381 q 177 282 78 179 q 73 154 73 140 q 73 109 87 89 q 100 70 124 70 q 136 70 150 79 q 165 89 180 103 q 196 117 241 159 z m 95 247 q 121 272 144 304 q 168 335 189 372 q 210 408 222 437 q 234 465 234 480 q 234 491 226 491 q 223 491 215 486 q 185 461 148 390 q 111 319 95 247 z"},"8":{"x_min":0,"x_max":448,"ha":448,"o":"m 304 324 q 327 283 339 253 q 352 224 352 198 q 352 133 322 88 q 292 43 248 21 q 203 0 157 0 q 118 0 84 21 q 50 43 50 76 q 50 100 69 134 q 88 168 125 213 q 162 257 217 313 q 145 397 145 466 q 145 515 166 550 q 186 585 227 608 q 268 631 327 642 q 386 653 467 653 q 518 653 538 649 q 558 645 558 628 q 558 623 553 610 q 547 597 537 580 q 527 563 515 548 q 509 540 502 538 q 495 536 477 537 q 486 522 486 513 q 486 500 473 486 q 460 473 421 439 q 382 405 354 376 q 344 366 329 350 q 314 334 304 324 z m 275 366 q 302 390 338 422 q 375 454 404 479 q 434 504 445 517 q 457 529 457 532 q 457 546 392 546 q 310 546 269 523 q 227 500 227 459 q 227 441 240 417 q 252 393 275 366 z m 249 269 q 184 200 147 150 q 111 101 111 87 q 111 55 166 55 q 184 55 204 64 q 224 72 240 87 q 256 103 266 126 q 277 149 277 177 q 277 230 249 269 z"},"\\":{"x_min":0,"x_max":281,"ha":281,"o":"m 280 -66 l 209 -66 l 2 674 l 73 674 z"},"e":{"x_min":0,"x_max":292,"ha":292,"o":"m 86 136 l 86 124 q 86 95 100 79 q 114 63 137 63 q 161 63 187 74 q 212 85 238 104 q 263 123 300 154 l 300 124 q 245 58 196 22 q 148 -13 98 -13 q 55 -13 29 21 q 4 54 4 113 q 4 164 28 206 q 52 248 106 294 q 143 326 180 342 q 216 358 245 358 q 268 358 281 347 q 295 337 295 316 q 295 285 272 255 q 249 224 202 194 q 155 164 86 136 z m 91 168 q 135 185 166 210 q 197 236 212 259 q 227 282 227 293 q 227 304 217 304 q 208 304 188 293 q 168 282 148 264 q 128 246 112 221 q 96 197 91 168 z"},"b":{"x_min":0,"x_max":323,"ha":323,"o":"m 331 153 l 331 121 q 280 89 251 89 q 235 89 217 94 q 173 39 141 13 q 110 -13 78 -13 q 42 -13 22 25 q 2 64 2 121 q 2 199 49 290 q 96 382 162 462 q 228 542 290 594 q 352 646 374 646 q 395 646 395 617 q 395 489 67 171 q 66 162 66 136 q 66 69 102 69 q 116 69 131 80 q 145 92 175 124 q 163 150 163 163 q 163 190 185 221 q 207 252 235 275 q 263 298 276 298 q 296 298 296 269 q 296 247 284 216 q 273 186 251 146 q 259 139 264 136 q 269 133 279 133 q 301 133 331 153 z m 83 226 q 108 248 134 278 q 160 308 209 370 q 256 430 283 469 q 311 509 324 536 q 338 562 338 572 q 338 579 334 579 q 323 579 289 544 q 255 508 212 447 q 152 362 125 319 q 98 276 83 226 z"},"%":{"x_min":0,"x_max":688,"ha":688,"o":"m 357 555 q 372 551 379 541 q 386 530 386 507 q 386 467 364 419 q 341 371 303 338 q 266 304 223 304 q 191 304 170 329 q 149 353 149 395 q 149 438 174 480 q 199 523 239 552 q 280 580 321 580 q 334 580 342 574 q 350 568 357 555 z m 232 365 q 263 365 292 390 q 320 414 338 448 q 355 481 355 504 q 355 531 340 531 q 338 531 321 527 q 304 523 296 528 q 295 529 293 530 q 292 531 290 531 q 284 531 261 510 q 238 490 220 461 q 202 431 202 400 q 202 384 211 375 q 220 365 232 365 z m 558 228 q 576 222 581 211 q 587 201 587 171 q 587 125 559 81 q 531 36 495 8 q 458 -21 437 -21 q 415 -21 391 8 q 368 38 368 79 q 368 113 391 154 q 414 194 450 222 q 487 250 523 250 q 543 250 558 228 z m 410 76 q 410 49 421 39 q 432 29 451 38 q 469 47 492 75 q 517 106 531 138 q 545 169 545 186 q 545 209 530 209 q 518 209 488 191 q 458 172 434 142 q 410 112 410 76 z m 105 20 q 105 43 141 86 q 176 129 278 237 q 327 288 371 330 q 416 372 441 394 q 467 415 518 457 q 568 499 577 507 q 613 540 628 547 q 643 555 643 532 q 643 515 624 491 q 604 467 547 413 q 490 359 429 298 q 369 237 299 156 q 264 115 232 74 q 201 33 180 3 q 158 -28 150 -37 q 142 -47 134 -47 q 124 -47 114 -22 q 105 3 105 20 z"},"m":{"x_min":0,"x_max":552,"ha":552,"o":"m 231 87 q 298 146 347 191 q 395 235 423 260 q 450 286 471 303 q 492 321 498 321 q 509 321 520 298 q 530 274 530 260 q 530 250 499 216 q 468 182 452 161 q 437 141 437 118 q 437 105 446 97 q 455 89 467 89 q 481 89 501 104 q 521 118 563 156 l 563 121 q 521 81 486 52 q 451 23 426 9 q 400 -6 383 -6 q 368 -6 357 6 q 347 17 347 34 q 347 51 353 68 q 359 85 371 108 q 383 132 403 165 q 423 198 440 225 q 390 185 352 147 q 313 109 289 81 q 264 53 250 37 q 223 7 199 7 q 174 7 174 43 q 174 58 193 95 q 212 133 247 192 q 250 196 250 204 q 250 214 240 214 q 229 214 209 194 q 189 173 131 109 q 115 91 94 62 q 74 33 65 23 q 57 13 48 13 q 30 13 15 44 q 0 76 0 117 q 0 147 10 169 q 20 191 41 224 q 74 271 94 292 q 115 312 138 312 q 152 312 162 306 q 172 301 172 291 q 172 281 154 257 q 136 234 109 209 q 94 195 81 174 q 68 153 68 144 q 68 131 78 131 q 86 131 120 165 q 154 199 194 240 q 234 280 269 306 q 303 333 327 333 q 342 333 351 322 q 361 311 361 295 q 361 284 346 256 q 332 228 303 187 q 275 146 231 87 z"},"#":{"x_min":0,"x_max":608,"ha":608,"o":"m 54 375 l 54 439 l 197 439 l 235 616 l 298 616 l 260 439 l 438 439 l 476 616 l 540 616 l 502 439 l 586 439 l 586 375 l 489 375 l 457 220 l 586 220 l 586 156 l 445 156 l 407 -20 l 343 -20 l 381 156 l 202 156 l 165 -20 l 101 -20 l 138 156 l 54 156 l 54 220 l 152 220 l 184 375 z m 426 375 l 247 375 l 215 220 l 394 220 z"},",":{"x_min":0,"x_max":333,"ha":333,"o":"m 90 -12 q 74 -6 70 -3 q 65 0 65 9 q 65 22 80 44 q 96 65 115 82 q 135 98 147 98 q 165 98 165 76 q 165 51 135 10 q 106 -31 82 -47 q 66 -58 66 -50 q 66 -46 69 -43 q 71 -40 78 -31 q 85 -21 90 -12 z"},"n":{"x_min":0,"x_max":365,"ha":365,"o":"m 337 242 q 251 146 251 109 q 251 88 268 88 q 282 88 305 103 q 328 118 376 156 l 376 122 q 307 54 270 23 q 232 -7 209 -7 q 169 -7 169 46 q 169 62 174 77 q 179 92 187 108 q 196 125 213 155 q 231 186 254 224 q 226 210 184 168 q 157 142 138 118 q 119 94 97 65 q 75 36 65 26 q 55 16 45 16 q 29 16 16 49 q 3 82 3 125 q 3 152 9 167 q 15 182 33 210 q 67 262 91 286 q 116 310 138 310 q 154 310 163 305 q 173 299 173 288 q 173 283 170 278 q 167 272 163 268 q 160 264 148 251 q 71 166 71 140 q 71 126 80 126 q 86 126 103 145 q 120 164 146 194 q 173 225 209 258 q 246 291 292 322 q 318 340 335 340 q 343 340 350 318 q 358 297 358 275 q 358 264 337 242 z"},"h":{"x_min":0,"x_max":365,"ha":365,"o":"m 373 154 l 373 123 q 331 80 300 52 q 269 24 245 10 q 222 -4 206 -4 q 168 -4 168 41 q 168 77 192 125 q 215 172 260 237 q 238 225 218 209 q 199 193 184 176 q 168 158 158 146 q 126 110 97 73 q 68 36 58 24 q 47 13 38 13 q 0 13 0 107 q 0 138 9 175 q 19 212 59 273 q 145 401 205 482 q 266 563 306 605 q 346 647 360 646 q 377 645 387 639 q 398 634 398 627 q 398 615 381 587 q 364 559 323 499 q 279 436 260 410 q 242 385 205 338 q 168 291 137 254 q 107 217 68 174 l 68 115 q 133 188 181 234 q 229 281 262 304 q 295 328 311 328 q 326 328 338 311 q 351 293 351 282 q 351 277 346 270 q 311 228 290 200 q 270 173 258 151 q 247 129 247 114 q 247 91 269 91 q 292 91 373 154 z"},"z":{"x_min":0,"x_max":302,"ha":302,"o":"m 2 111 l 2 147 q 29 175 57 226 q 30 230 30 248 q 30 263 48 287 q 66 311 91 330 q 116 349 130 349 q 146 349 146 336 q 146 331 143 329 q 139 327 139 321 q 139 316 147 316 q 171 316 208 326 q 245 336 259 336 q 270 336 274 315 q 284 259 284 252 q 284 245 278 239 q 272 233 244 215 q 216 197 192 180 q 168 163 130 133 q 156 121 168 105 q 180 90 189 59 l 311 155 l 311 122 l 188 23 q 183 -24 156 -72 q 128 -121 91 -159 q 55 -198 19 -222 q -18 -247 -34 -247 q -50 -247 -57 -237 q -63 -226 -63 -206 q -63 -177 -51 -151 q -38 -125 -14 -100 q 9 -74 43 -48 q 76 -21 132 17 q 126 52 114 60 q 101 69 75 77 q 49 86 49 103 q 49 122 232 249 q 203 243 163 236 q 124 229 88 226 q 63 187 41 157 q 18 127 2 111 z m 127 -29 q 92 -53 59 -84 q 26 -114 3 -142 q -21 -169 -21 -175 q -21 -186 -11 -186 q 6 -186 34 -167 q 62 -147 88 -111 q 115 -74 127 -29 z"},"B":{"x_min":0,"x_max":552,"ha":552,"o":"m 275 330 l 250 301 q 293 297 328 290 q 362 284 391 276 q 420 268 442 259 q 519 227 519 169 q 519 134 487 100 q 455 66 403 40 q 352 14 297 -1 q 243 -16 198 -16 q 124 -16 83 11 q 41 39 41 87 q 41 120 66 165 q 92 210 145 277 q 105 279 88 289 q 72 299 72 317 q 72 328 78 334 q 84 340 95 343 q 106 345 136 349 q 167 353 215 359 q 268 424 310 457 q 353 490 401 495 q 405 496 409 496 q 414 496 414 493 q 414 490 403 478 q 392 465 367 437 q 343 409 309 371 q 401 383 459 399 q 518 415 547 437 q 577 459 577 486 q 577 519 545 533 q 514 548 448 548 q 412 548 365 541 q 319 533 281 524 q 243 515 214 504 q 184 494 184 489 q 184 487 187 486 q 211 477 211 471 q 211 463 138 441 q 64 419 39 419 q 21 419 21 437 q 21 458 60 514 q 100 570 132 586 q 143 591 184 603 q 225 615 274 625 q 323 636 374 644 q 425 651 464 651 q 556 651 603 618 q 649 585 649 535 q 649 501 628 470 q 606 439 562 411 q 517 383 445 362 q 373 341 275 330 z m 223 267 q 198 237 178 214 q 158 190 150 176 q 141 162 141 147 q 141 124 165 105 q 189 87 235 87 q 277 87 324 102 q 372 117 405 141 q 437 165 437 189 q 437 210 413 224 q 389 237 340 248 q 292 258 223 267 z"},"K":{"x_min":0,"x_max":656,"ha":656,"o":"m 593 -56 q 587 -56 575 -50 q 564 -43 542 -28 q 521 -13 493 6 l 229 183 l 151 80 q 151 67 147 60 q 144 54 133 42 q 106 14 87 0 q 68 -15 53 -15 q 46 -15 41 -9 q 35 -3 35 6 q 35 18 49 37 l 192 215 q 179 235 179 256 q 179 277 191 292 q 203 308 219 317 q 234 326 305 364 q 406 497 406 513 q 406 524 393 524 q 380 524 335 508 q 290 493 216 460 q 143 428 42 377 q 34 373 23 373 q 13 374 5 382 q -2 389 -2 402 q -2 406 0 411 q 1 417 5 428 q 9 439 12 448 q 13 451 17 469 q 21 487 29 502 q 38 517 59 535 q 81 553 120 573 q 127 578 134 579 q 140 580 140 575 q 140 574 126 563 q 111 553 94 529 q 237 579 304 599 q 372 619 413 619 q 436 619 451 589 q 466 558 466 549 q 466 535 455 518 l 377 401 q 470 447 521 474 q 573 501 633 533 q 694 565 710 573 q 726 581 731 581 q 742 581 742 571 q 742 565 725 539 q 708 513 688 492 q 667 471 654 471 q 650 471 646 473 q 641 475 636 476 q 570 442 475 395 q 379 348 324 322 l 282 259 l 530 91 q 564 68 579 54 q 595 41 602 24 q 610 8 610 -16 q 610 -56 593 -56 z"},"R":{"x_min":0,"x_max":656,"ha":656,"o":"m 379 45 l 195 135 q 125 39 116 8 q 110 -14 90 -29 q 70 -44 61 -44 q 36 -44 36 -25 q 36 -14 66 37 q 95 88 147 157 q 118 169 111 173 q 104 177 106 188 q 107 199 123 222 q 137 243 144 250 q 150 257 160 261 q 169 265 179 267 q 189 268 237 274 q 275 326 321 387 q 366 447 391 481 q 314 471 284 464 q 252 458 230 453 q 208 449 200 446 q 191 443 191 437 q 191 432 202 430 q 212 428 229 428 q 245 428 254 427 q 263 425 263 421 q 263 416 251 415 q 239 415 184 412 q 153 411 132 410 q 110 409 102 409 q 91 409 84 416 q 78 423 78 434 q 78 442 87 465 q 97 487 114 510 q 131 533 153 546 q 178 561 230 576 q 283 592 347 601 q 411 611 474 611 q 512 611 549 606 q 585 602 615 596 q 644 589 661 583 q 706 568 729 539 q 753 509 753 473 q 753 438 741 406 q 729 373 704 344 q 680 316 645 299 q 617 284 559 269 q 501 254 420 242 q 338 230 238 225 q 313 199 378 172 q 443 146 488 125 q 533 104 558 91 q 594 72 604 64 q 615 56 619 42 q 622 29 622 -1 q 622 -35 618 -52 q 614 -68 600 -68 q 596 -68 577 -58 q 558 -49 525 -31 q 492 -12 465 2 q 438 17 379 45 z m 422 486 q 422 482 423 479 q 423 477 423 471 q 423 458 414 440 q 406 422 392 403 q 379 384 352 349 q 326 314 303 285 q 406 305 478 323 q 551 341 598 359 q 645 377 668 398 q 692 418 692 440 q 692 464 642 478 q 593 492 521 492 q 506 492 490 491 q 474 491 451 489 q 428 486 422 486 z"},"T":{"x_min":0,"x_max":573,"ha":573,"o":"m 399 97 l 415 85 q 409 71 403 61 q 397 51 389 36 q 380 21 376 14 q 339 -50 307 -50 q 293 -50 284 -39 q 274 -28 274 -10 q 274 17 293 62 q 312 108 351 176 q 390 243 450 328 q 509 413 584 507 q 541 513 482 513 q 414 513 331 498 q 248 483 186 463 q 124 443 124 434 q 124 431 126 429 q 129 428 135 427 q 140 427 149 426 q 206 418 206 408 q 206 403 181 404 q 156 404 121 404 q 93 404 81 406 q 68 408 64 414 q 60 420 60 433 q 60 441 65 469 q 74 521 94 552 q 113 583 153 603 q 192 623 262 635 q 379 655 456 655 q 513 655 545 650 q 578 646 594 637 q 609 628 613 619 q 617 611 624 590 l 639 545 q 641 541 642 538 q 643 535 643 532 q 644 529 644 527 q 644 508 635 493 q 627 478 604 447 q 582 417 571 400 q 445 195 399 97 z"},"P":{"x_min":0,"x_max":625,"ha":625,"o":"m 204 290 l 353 512 q 302 510 246 498 q 190 485 150 470 q 110 456 78 443 q 47 430 33 425 q 30 425 26 427 q 23 430 23 433 q 23 437 46 481 q 68 525 99 575 q 270 636 401 636 q 552 636 611 572 q 632 549 643 516 q 655 483 655 451 q 655 378 624 318 q 594 258 537 214 q 480 170 404 147 q 327 124 236 124 q 220 124 170 130 l 126 50 q 133 40 133 33 q 133 18 126 8 q 116 -7 100 -31 q 84 -55 78 -62 q 73 -70 66 -76 q 59 -82 52 -82 q 38 -82 34 -73 q 30 -65 30 -50 q 30 -28 51 18 q 72 65 115 142 q 92 151 80 165 q 67 179 67 193 q 67 223 102 249 q 136 275 204 290 z m 255 277 l 227 230 q 246 229 260 228 q 274 227 284 227 q 370 227 432 250 q 495 273 532 307 q 569 341 585 375 q 602 409 602 432 q 602 464 577 482 q 551 500 504 507 q 456 513 381 513 q 382 508 382 500 q 382 475 355 433 l 270 300 l 334 307 q 342 307 342 300 q 342 293 329 291 z"},"|":{"x_min":0,"x_max":542,"ha":542,"o":"m 259 -251 l 259 674 l 337 674 l 337 -251 z"},"t":{"x_min":0,"x_max":250,"ha":250,"o":"m 179 407 l 200 407 q 226 454 247 473 q 268 492 295 492 q 322 492 322 480 q 322 474 301 448 q 280 422 269 405 q 286 403 299 401 q 312 400 319 399 q 291 347 249 293 q 235 294 226 295 q 217 295 207 296 q 198 297 184 298 q 158 255 140 222 q 122 188 113 161 q 103 133 103 108 q 103 74 130 74 q 148 74 178 94 q 208 114 259 155 l 259 122 q 127 -21 64 -21 q 42 -21 29 -4 q 15 13 15 40 q 15 58 23 83 q 30 108 50 158 q 43 152 37 147 q 31 141 26 136 q 21 132 15 127 q 9 122 3 116 l 3 150 q 54 193 127 301 q 120 301 113 302 q 107 302 98 302 q 69 302 55 298 q 49 296 44 295 q 39 293 37 293 q 35 293 35 296 q 35 312 55 344 q 71 372 86 385 q 100 398 121 403 q 142 407 179 407 z"},"M":{"x_min":0,"x_max":833,"ha":833,"o":"m 844 156 l 844 122 q 798 79 765 52 q 733 25 701 4 q 668 -17 647 -26 q 626 -35 611 -35 q 575 -35 552 -8 q 529 19 529 61 q 529 110 549 158 q 568 206 605 257 q 642 308 697 371 q 738 418 738 424 q 738 427 735 430 q 733 432 730 432 q 721 432 673 391 q 625 350 550 271 q 475 191 388 81 q 383 75 357 41 q 331 7 320 -3 q 310 -13 302 -13 q 288 -13 278 14 q 268 42 268 73 q 268 92 281 114 q 293 136 335 193 q 376 250 404 289 q 431 328 464 384 q 487 422 498 445 q 509 468 509 486 q 509 501 500 501 q 481 501 430 451 q 379 402 303 304 q 228 207 146 78 q 119 34 108 19 q 97 4 83 4 q 66 4 51 40 q 36 77 36 99 q 36 106 42 115 q 106 201 148 261 q 189 321 222 375 q 254 429 269 464 q 283 499 283 519 q 283 540 264 540 q 249 540 211 520 q 173 500 116 465 q 59 431 24 412 q -11 394 -28 394 q -44 394 -44 412 q -44 422 -37 459 q -30 496 -23 511 q -13 531 30 563 q 72 595 76 595 q 80 595 80 592 q 80 590 76 586 q 56 570 46 560 q 37 549 34 537 q 124 591 194 619 q 265 647 292 647 q 306 647 318 629 q 330 610 339 586 q 347 562 347 555 q 347 530 334 496 q 322 462 300 417 q 278 373 246 305 q 271 338 294 366 q 317 394 340 420 q 363 446 386 473 q 418 510 458 543 q 497 577 531 598 q 566 619 578 619 q 595 619 609 600 q 622 582 622 560 q 622 546 604 506 q 585 466 549 403 q 514 341 455 242 q 511 301 571 364 q 631 426 660 455 q 689 484 709 499 q 736 520 763 543 q 790 567 806 581 q 821 594 833 602 q 846 609 856 609 q 869 609 888 580 q 907 550 907 542 q 907 532 896 518 q 884 503 848 465 q 782 394 733 321 q 684 249 659 189 q 634 129 634 94 q 634 73 642 63 q 650 53 667 53 q 683 53 696 59 q 709 65 726 76 q 742 86 757 96 q 777 108 797 122 q 817 136 828 144 q 839 152 844 156 z"},"g":{"x_min":0,"x_max":385,"ha":385,"o":"m 396 121 l 234 -12 q 166 -130 109 -189 q 53 -247 26 -247 q 11 -247 11 -229 q 11 -194 47 -139 q 61 -118 79 -97 q 98 -77 114 -62 q 130 -47 157 -25 q 184 -2 194 6 q 243 105 264 158 q 218 109 184 78 q 150 47 121 30 q 93 13 70 13 q 45 13 24 53 q 3 93 3 135 q 3 154 12 176 q 21 197 40 222 q 60 246 89 272 q 119 297 159 322 q 235 369 277 369 q 308 369 308 346 q 308 314 240 284 q 199 266 158 236 q 117 207 92 173 q 67 140 67 113 q 67 100 73 92 q 80 84 90 84 q 107 84 129 100 q 151 115 194 155 q 213 173 246 213 q 278 253 300 275 q 321 296 338 296 q 348 296 354 290 q 360 284 360 272 q 360 250 342 207 q 324 164 278 67 l 396 153 z"},"j":{"x_min":0,"x_max":281,"ha":281,"o":"m 350 494 q 350 479 339 453 q 327 417 317 406 q 308 394 288 394 q 246 394 246 422 q 246 444 272 485 q 286 507 294 512 q 302 517 321 517 q 350 517 350 494 z m 37 241 l 51 280 l 141 321 q 222 359 258 359 q 286 359 286 333 q 286 324 279 303 q 271 282 253 244 q 235 205 212 156 q 188 107 163 55 q 200 80 227 101 q 255 123 292 155 l 293 120 q 199 39 119 -41 q 71 -135 34 -183 q -3 -231 -22 -231 q -35 -231 -35 -205 q -35 -173 -21 -141 q -7 -109 22 -74 q 52 -39 92 -2 q 154 120 179 176 q 205 231 205 248 q 205 259 195 259 q 189 259 122 227 q 55 196 38 196 q 28 196 28 207 q 28 214 37 241 z"},"i":{"x_min":0,"x_max":229,"ha":229,"o":"m 208 372 q 196 372 185 381 q 174 391 174 405 q 174 426 194 453 q 215 479 237 479 q 251 479 261 470 q 271 461 271 444 q 271 423 251 397 q 231 372 208 372 z m 241 154 l 241 118 q 194 57 153 26 q 112 -5 83 -5 q 43 -5 23 37 q 4 79 4 129 q 4 148 8 165 q 12 183 17 194 q 22 205 37 229 q 106 337 164 337 q 194 337 194 314 q 194 298 175 265 q 155 232 140 218 q 98 177 85 161 q 72 145 72 124 q 72 106 85 95 q 98 83 119 83 q 142 83 170 100 q 197 117 241 154 z"},"y":{"x_min":0,"x_max":375,"ha":375,"o":"m 233 135 l 146 61 q 84 7 63 7 q 44 7 23 51 q 2 94 2 127 q 2 155 10 174 q 19 193 40 224 q 70 266 97 294 q 125 323 146 339 q 167 355 175 355 q 188 355 200 341 q 213 328 213 313 q 213 304 199 283 q 186 263 157 231 q 128 200 76 156 l 67 129 q 63 121 63 115 q 63 102 76 102 q 90 102 140 137 q 191 171 250 230 q 273 253 288 271 q 303 288 315 303 q 328 319 336 327 q 344 334 350 335 q 362 336 369 325 q 376 313 376 290 q 376 277 364 257 q 353 237 320 190 q 288 142 256 91 q 224 40 191 -24 q 192 -22 221 5 q 250 33 281 63 q 313 94 333 112 q 354 130 385 155 l 385 122 q 319 51 265 -12 q 212 -76 183 -114 q 154 -152 149 -158 q 136 -175 125 -190 q 115 -205 108 -213 q 101 -221 96 -221 q 86 -221 78 -201 q 70 -181 70 -165 q 70 -151 75 -140 q 110 -61 233 135 z"},"@":{"x_min":0,"x_max":1010,"ha":1010,"o":"m 494 474 q 539 474 577 451 q 615 428 641 385 l 657 461 l 745 461 l 675 133 q 671 113 666 89 q 660 65 660 56 q 660 44 670 35 q 681 25 696 25 q 726 25 771 60 q 815 94 849 156 q 883 218 883 295 q 883 361 857 417 q 831 474 783 516 q 736 558 671 580 q 607 603 533 603 q 444 603 370 571 q 295 540 240 482 q 185 424 156 347 q 126 270 126 182 q 126 94 154 25 q 182 -45 237 -94 q 292 -142 371 -167 q 450 -193 549 -193 q 667 -193 756 -153 q 845 -113 891 -46 l 979 -46 q 964 -76 939 -106 q 913 -136 877 -164 q 841 -191 799 -212 q 757 -233 712 -246 q 641 -265 548 -265 q 393 -265 281 -211 q 170 -157 112 -58 q 54 41 54 174 q 54 272 87 363 q 120 453 181 524 q 225 575 279 608 q 333 642 397 658 q 462 674 537 674 q 632 674 710 644 q 787 614 842 562 q 896 511 926 443 q 955 376 955 301 q 955 227 930 162 q 905 97 862 47 q 819 -2 767 -30 q 714 -57 664 -57 q 608 -57 589 -36 q 570 -15 567 25 q 546 0 520 -18 q 494 -37 469 -47 q 443 -56 419 -56 q 370 -56 328 -28 q 287 0 264 51 q 240 102 240 165 q 240 220 261 275 q 281 331 317 376 q 353 421 399 448 q 444 474 494 474 z m 330 157 q 330 114 344 83 q 358 51 382 33 q 407 16 438 16 q 467 16 499 35 q 530 54 556 88 q 582 122 597 166 q 613 210 613 260 q 613 326 582 364 q 551 402 499 402 q 452 402 413 365 q 375 327 352 269 q 330 211 330 157 z"},".":{"x_min":0,"x_max":333,"ha":333,"o":"m 77 -2 q 69 -2 63 4 q 57 11 57 22 q 57 31 68 53 q 78 76 94 94 q 110 112 127 112 q 148 112 148 87 q 148 73 137 52 q 125 30 109 14 q 92 -2 77 -2 z"},"p":{"x_min":0,"x_max":406,"ha":406,"o":"m 2 113 l 2 147 q 70 221 120 287 q 169 352 198 391 q 227 429 249 445 q 271 461 304 461 q 321 461 321 448 q 321 438 307 418 q 294 398 273 377 q 245 350 219 308 q 192 267 158 203 q 185 224 219 252 q 253 280 275 296 q 297 312 318 321 q 339 330 361 330 q 375 330 379 325 q 383 320 383 306 q 383 269 365 234 q 347 198 313 160 q 279 122 230 77 q 247 71 265 71 q 322 71 417 157 l 417 122 q 380 89 344 60 q 309 30 278 13 q 247 -5 220 -5 q 210 -5 199 -3 q 188 0 179 3 q 170 6 155 12 q 141 18 133 20 q 117 16 115 16 q 98 16 75 30 q 59 -1 40 -51 q 21 -101 7 -130 q -6 -159 -28 -186 q -40 -198 -45 -198 q -66 -198 -66 -161 q -66 -129 -53 -94 q -40 -59 -21 -28 q -2 3 20 35 q 42 67 52 83 q 129 216 172 309 q 60 172 2 113 z m 200 89 q 249 140 272 175 q 296 211 296 230 q 296 248 278 248 q 253 248 209 208 q 165 167 118 99 q 154 103 167 102 q 179 101 200 89 z"},"X":{"x_min":0,"x_max":604,"ha":604,"o":"m 354 298 l 359 517 q 313 510 269 492 q 225 475 190 455 q 156 435 133 417 q 111 399 111 395 q 111 390 124 390 q 129 390 138 391 q 148 392 164 393 q 173 393 173 390 q 173 389 170 386 q 167 384 166 384 q 120 366 84 354 q 47 343 42 343 q 33 343 33 354 q 33 383 50 424 q 67 464 97 494 q 118 516 156 540 q 194 563 239 582 q 284 601 329 613 q 375 624 412 624 q 435 624 447 615 q 459 607 459 577 q 459 565 455 511 q 452 458 451 404 l 542 503 q 563 526 586 552 q 608 577 616 583 q 625 589 633 589 q 650 589 650 574 q 650 554 610 483 q 595 475 574 471 l 444 323 l 428 58 q 427 45 433 39 q 438 32 449 32 q 463 32 488 46 q 513 60 554 88 q 556 89 560 89 q 569 89 569 81 q 569 69 538 32 q 506 -5 465 -34 q 424 -63 390 -63 q 365 -63 357 -44 q 348 -25 348 19 q 348 33 348 47 q 349 62 349 88 q 350 115 350 144 q 351 173 352 216 q 294 154 256 110 q 219 66 199 42 q 180 17 175 9 q 151 -20 118 -42 q 85 -64 70 -64 q 54 -64 54 -40 q 54 -11 81 28 q 108 67 150 96 q 161 103 193 119 z"},"*":{"x_min":0,"x_max":323,"ha":323,"o":"m -35 436 q -35 444 -26 448 q -17 452 10 460 q 37 468 54 473 q 70 479 94 491 q 69 501 27 510 q -16 520 -26 523 q -36 526 -36 537 q -36 544 -21 569 q -5 593 5 593 q 15 593 42 578 q 69 562 116 532 q 116 568 104 605 q 93 643 93 650 q 93 659 99 662 q 105 665 118 665 q 170 665 170 631 q 170 623 163 591 q 157 559 155 531 q 169 538 179 550 q 189 561 205 582 q 221 604 232 614 q 243 624 253 624 q 261 624 270 610 q 280 596 287 578 q 294 560 294 553 q 294 539 284 534 q 275 530 239 521 q 202 512 178 499 q 198 494 232 487 q 267 479 279 475 q 291 470 291 459 q 291 444 275 423 q 259 402 247 402 q 244 402 218 420 q 192 439 159 459 q 161 434 168 404 q 175 374 175 364 q 175 352 168 343 q 161 335 148 335 q 93 335 93 361 q 93 362 98 374 q 103 386 108 406 q 113 426 115 459 q 95 445 79 432 q 62 419 51 410 q 39 401 28 397 q 17 394 2 394 q -6 394 -21 409 q -35 424 -35 436 z"},"Y":{"x_min":0,"x_max":552,"ha":552,"o":"m -64 340 l -55 397 q -51 426 -40 445 q -28 463 0 486 q 28 508 87 549 q 229 648 308 648 q 332 648 342 638 q 352 628 352 604 q 352 587 339 557 q 326 527 292 463 q 257 398 231 347 q 209 305 182 258 q 155 211 146 193 q 136 176 136 167 q 136 157 143 150 q 149 143 158 143 q 171 143 187 157 q 203 170 249 216 q 271 238 297 269 q 323 300 361 348 q 399 396 431 438 q 451 464 467 484 q 483 505 495 516 q 506 527 513 527 q 519 527 532 512 l 544 497 q 557 479 557 470 q 557 460 521 399 q 484 337 459 292 q 434 247 393 161 q 353 76 316 -28 q 415 47 452 72 q 488 97 505 97 q 516 97 516 88 q 516 78 505 61 q 495 45 477 25 q 458 5 422 -32 q 386 -69 343 -113 q 316 -140 292 -175 q 267 -211 253 -230 q 239 -250 228 -253 q 211 -258 198 -246 q 184 -233 184 -207 q 184 -188 203 -130 q 222 -72 260 14 q 282 66 306 112 q 329 158 360 214 q 390 269 419 319 q 449 369 469 404 q 420 340 372 280 q 324 219 265 153 q 206 86 145 28 q 119 3 107 -6 q 96 -15 77 -15 q 65 -15 54 -7 q 43 1 36 14 q 29 27 29 39 q 29 60 35 75 q 41 91 56 122 q 123 256 153 306 q 261 480 261 501 q 261 508 256 512 q 251 516 244 516 q 230 516 211 504 q 192 492 164 469 q 135 445 94 413 q 52 380 7 350 q -11 338 -34 322 q -57 306 -60 306 q -67 306 -67 313 q -67 319 -64 340 z"},"c":{"x_min":0,"x_max":292,"ha":292,"o":"m 302 153 l 302 120 q 250 69 217 41 q 184 12 155 -3 q 126 -19 99 -19 q 72 -19 50 2 q 27 23 15 58 q 2 92 2 131 q 2 164 17 190 q 31 216 73 257 q 123 306 166 332 q 208 359 233 359 q 250 359 263 347 q 275 334 275 316 q 275 300 259 271 q 243 243 223 221 q 203 200 191 200 q 178 200 178 214 q 179 218 179 221 q 179 225 179 228 q 179 234 175 235 q 171 235 165 231 q 116 197 98 183 q 80 169 70 155 q 59 141 59 125 q 59 96 78 78 q 96 60 126 60 q 157 60 200 84 q 243 107 302 153 z"},"!":{"x_min":0,"x_max":344,"ha":344,"o":"m 348 626 q 358 629 366 629 q 382 629 402 619 q 421 608 434 590 q 411 556 360 479 q 308 403 283 365 q 257 327 230 286 q 204 245 190 222 q 199 220 199 211 q 199 205 188 191 q 176 177 167 177 q 156 177 140 196 q 123 216 123 230 q 123 237 131 253 q 138 270 157 303 q 176 337 200 377 q 224 418 258 477 q 325 592 348 626 z m 107 4 q 92 4 78 17 q 64 30 64 53 q 64 84 80 123 q 96 161 113 161 q 124 161 135 154 q 146 146 153 132 q 161 119 161 102 q 161 75 143 40 q 125 4 107 4 z"},"/":{"x_min":0,"x_max":281,"ha":281,"o":"m 73 -66 l 2 -66 l 209 674 l 280 674 z"},"[":{"x_min":0,"x_max":292,"ha":292,"o":"m 379 664 q 416 659 465 659 q 498 659 555 664 q 541 632 530 610 q 520 587 510 574 q 501 561 490 555 q 479 549 462 549 q 442 549 390 562 q 302 409 267 349 q 232 289 207 246 q 181 203 156 162 q 132 121 115 92 q 60 -7 35 -94 q 85 -76 120 -76 q 164 -76 200 -97 q 167 -147 151 -177 q 135 -208 123 -251 q 108 -241 93 -236 q 77 -230 53 -230 q 29 -230 12 -233 q -5 -237 -25 -242 q -46 -248 -51 -248 q -79 -248 -79 -186 q -79 -154 -62 -110 q -46 -66 -13 -5 q 21 56 71 139 q 121 222 187 328 q 225 390 253 437 q 281 485 295 510 q 309 535 336 585 q 363 636 379 664 z"},"6":{"x_min":0,"x_max":417,"ha":417,"o":"m 366 585 l 417 582 q 448 580 459 578 q 470 576 470 570 q 470 564 425 539 q 379 514 349 496 q 319 478 265 434 q 211 391 158 330 q 147 317 138 305 q 129 292 122 281 q 115 270 114 269 q 166 325 207 352 q 249 379 294 379 q 341 379 369 350 q 396 322 396 272 q 396 216 357 149 q 319 81 260 34 q 202 -12 147 -12 q 113 -12 81 14 q 49 41 29 82 q 10 124 10 168 q 10 228 52 305 q 95 383 176 458 q 257 533 366 585 z m 127 67 q 153 67 200 102 q 247 137 283 188 q 319 239 319 284 q 319 325 288 325 q 253 325 178 262 q 133 224 113 193 q 92 162 92 123 q 92 93 100 80 q 108 67 127 67 z"},"r":{"x_min":0,"x_max":292,"ha":292,"o":"m 3 116 l 3 148 q 29 179 43 201 q 27 207 20 214 q 13 222 13 238 q 13 255 28 282 q 42 309 64 333 q 85 356 103 363 q 110 366 116 366 q 126 366 126 357 q 126 349 111 323 q 211 339 238 339 q 248 339 252 337 q 260 333 266 316 q 271 300 271 284 q 271 274 262 262 q 253 250 231 227 q 205 199 188 167 q 170 134 170 117 q 170 94 198 94 q 228 94 302 155 l 302 122 q 261 80 235 55 q 208 31 186 16 q 164 2 146 2 q 125 2 112 21 q 98 40 98 75 q 98 96 109 123 q 120 150 140 181 q 161 213 187 244 q 173 241 156 238 q 139 235 120 231 q 101 228 91 226 q 61 166 3 116 z"},"2":{"x_min":0,"x_max":438,"ha":438,"o":"m 152 429 q 203 427 225 422 q 247 418 247 405 q 247 399 243 397 q 240 395 231 393 q 223 392 212 390 q 195 387 157 379 q 119 370 115 370 q 96 370 96 394 q 96 416 105 449 q 114 483 130 512 q 145 541 162 553 q 182 567 224 582 q 267 596 319 606 q 372 616 415 616 q 437 616 448 610 q 458 604 462 594 q 467 583 477 551 q 487 521 487 483 q 487 437 465 403 q 444 369 406 341 q 368 312 273 253 q 178 194 125 158 q 120 155 105 145 q 90 136 78 125 q 66 115 54 99 q 120 105 261 135 q 300 143 336 153 q 373 163 380 163 q 392 163 392 151 q 392 140 387 123 q 382 107 372 90 q 362 73 349 61 q 285 1 100 1 q 52 1 36 16 q 26 25 16 56 q 5 86 5 101 q 5 126 30 163 q 55 200 98 239 q 142 278 194 308 q 353 399 363 406 q 398 430 419 455 q 439 480 439 495 q 439 509 428 516 q 417 524 397 524 q 365 524 321 512 q 276 501 230 479 q 185 458 152 429 z"},"{":{"x_min":0,"x_max":417,"ha":417,"o":"m 389 -280 l 362 -280 q 330 -280 314 -278 q 299 -277 281 -268 q 256 -257 240 -235 q 223 -212 216 -179 q 208 -146 208 -102 q 208 0 204 44 q 201 89 179 118 q 157 147 106 149 l 106 229 q 157 231 179 260 q 201 289 204 334 q 208 379 208 481 q 208 524 216 558 q 223 591 239 613 q 255 634 281 646 q 294 652 307 655 q 321 658 333 659 q 345 659 362 659 l 389 659 l 389 582 l 374 582 q 339 582 322 574 q 304 567 297 546 q 290 525 290 481 l 290 410 q 290 348 281 306 q 273 264 251 235 q 229 207 187 189 q 227 170 249 145 q 271 119 281 77 q 290 36 290 -31 l 290 -103 q 290 -147 297 -168 q 304 -188 322 -196 q 339 -203 374 -203 l 389 -203 z"},"9":{"x_min":0,"x_max":458,"ha":458,"o":"m 388 357 q 337 315 300 289 q 263 262 233 247 q 204 232 180 232 q 163 232 138 256 q 113 280 95 316 q 77 352 77 385 q 77 446 139 511 q 201 576 283 619 q 365 663 411 663 q 436 663 457 647 q 479 631 491 611 q 503 592 503 581 q 503 565 482 543 q 461 521 436 503 q 411 485 404 485 q 401 485 401 489 q 401 495 429 523 q 445 539 445 549 q 445 555 439 555 q 429 555 389 539 q 349 522 303 494 q 257 466 220 429 q 192 400 178 369 q 164 338 164 322 q 164 299 191 299 q 207 299 240 312 q 272 325 309 348 q 345 370 370 395 q 423 447 444 463 q 464 479 481 479 q 493 479 501 473 q 509 467 509 457 q 509 454 479 406 q 396 269 356 207 q 317 144 283 96 q 249 48 218 20 q 187 -8 163 -8 q 149 -8 149 11 q 149 27 169 65 q 188 104 218 103 q 276 185 311 238 q 346 292 388 357 z"}," ":{"x_min":0,"x_max":281,"ha":281,"o":""},"I":{"x_min":0,"x_max":438,"ha":438,"o":"m 178 -14 l 148 8 q 141 14 141 20 q 141 26 164 64 q 181 91 209 138 q 237 185 254 215 q 271 245 296 294 q 320 343 341 390 q 388 498 388 528 q 388 563 361 563 q 340 563 302 542 q 265 521 224 488 q 184 454 157 417 q 130 381 130 353 q 130 349 132 346 q 135 344 141 344 q 153 344 179 358 q 191 364 191 356 q 191 348 154 316 q 117 283 99 283 q 84 283 57 309 q 30 335 30 357 q 30 365 45 396 q 60 428 86 467 q 113 506 142 535 q 176 569 219 595 q 262 622 302 636 q 342 651 366 651 q 401 651 421 624 q 441 598 441 550 q 441 486 391 366 q 341 246 238 85 q 239 80 241 74 q 243 69 243 64 q 243 63 242 60 q 240 58 238 55 q 236 52 236 51 l 200 -8 q 194 -18 188 -18 q 182 -18 178 -14 z"},"H":{"x_min":0,"x_max":646,"ha":646,"o":"m 112 429 l 7 374 q -18 361 -26 361 q -41 361 -48 371 q -55 380 -55 400 q -55 423 -45 453 q -36 483 -23 498 q -10 512 39 538 q 87 563 156 589 q 224 615 298 632 q 373 649 434 649 q 477 649 498 636 q 518 622 518 563 q 518 532 496 493 q 475 454 444 417 q 414 381 331 288 q 375 294 396 296 q 416 298 472 305 q 537 398 577 454 q 617 510 645 547 q 673 584 678 589 q 688 601 695 598 q 701 595 701 578 q 701 558 697 545 q 693 532 684 520 q 675 507 675 506 q 662 485 638 451 q 614 417 591 384 q 568 351 539 306 q 594 304 647 292 l 559 172 q 523 177 463 177 q 448 148 440 131 q 432 115 427 100 q 421 85 421 72 q 421 64 426 52 q 430 39 430 37 q 430 27 416 16 q 401 5 382 -3 q 363 -12 352 -12 q 334 -12 334 16 q 334 72 392 173 q 315 167 215 150 q 186 112 163 78 q 139 44 124 21 q 109 -3 102 -11 q 95 -19 87 -19 q 73 -19 63 -6 q 59 -1 57 3 q 56 8 56 14 q 56 20 56 24 q 56 30 62 42 q 69 53 93 86 q 117 120 128 137 q 115 135 95 135 q 70 135 54 145 q 38 154 38 167 q 38 183 46 201 q 55 219 68 231 q 81 243 94 243 q 103 243 115 237 l 241 269 q 347 383 398 449 q 450 516 450 535 q 450 545 444 552 q 438 560 428 563 q 417 567 404 567 q 388 567 353 559 q 318 550 270 533 q 221 516 149 485 q 95 463 95 458 q 95 451 103 449 q 110 447 121 446 q 133 445 133 442 q 133 440 127 437 q 122 434 112 429 z"},"4":{"x_min":0,"x_max":427,"ha":427,"o":"m 399 170 l 296 148 q 282 110 277 64 q 290 52 290 39 q 290 28 255 4 q 220 -19 209 -19 q 186 -19 186 16 q 186 76 201 132 q 181 132 147 128 q 113 124 100 124 q 70 124 53 129 q 37 134 28 147 q 20 162 12 188 q 5 214 5 227 q 5 238 19 267 q 32 295 60 334 q 87 372 123 406 q 161 442 215 479 q 269 517 319 545 q 369 573 408 591 q 448 609 455 609 q 479 609 479 582 q 479 577 469 554 q 485 540 485 528 q 485 511 480 498 q 476 484 469 472 q 461 460 451 445 q 430 412 420 396 q 409 379 391 352 q 374 324 362 304 q 351 284 338 255 q 415 268 423 268 q 445 268 445 251 q 445 229 399 170 z m 243 239 q 282 320 324 379 q 367 437 408 485 q 449 532 449 539 q 449 543 446 546 q 443 548 438 548 q 428 548 358 504 q 284 457 232 417 q 180 376 139 328 q 99 280 72 224 q 167 230 243 239 z"},"~":{"x_min":0,"x_max":667,"ha":667,"o":"m 113 228 l 85 228 q 89 308 125 347 q 160 386 211 386 q 245 386 283 374 q 322 361 375 338 q 428 315 454 305 q 480 296 501 296 q 538 296 561 319 q 584 343 589 386 l 617 386 q 614 311 578 270 q 541 229 487 229 q 456 229 422 240 q 388 251 338 272 q 288 293 256 305 q 225 316 198 316 q 128 316 113 228 z"},"D":{"x_min":0,"x_max":646,"ha":646,"o":"m 52 429 q 52 426 58 426 q 62 426 98 432 q 133 438 162 438 q 130 429 107 420 q 83 411 59 400 q 34 389 23 385 q 13 382 5 382 q -20 382 -20 414 q -20 497 22 531 q 39 544 77 563 q 115 582 162 599 q 210 616 267 628 q 324 640 380 640 q 437 640 485 624 q 533 607 565 577 q 597 547 615 503 q 632 460 632 406 q 632 323 584 246 q 537 168 457 109 q 378 49 278 15 q 179 -20 82 -20 q 64 -20 53 -16 q 43 -12 39 -1 q 34 11 34 33 q 34 61 39 79 q 43 96 53 119 q 124 275 298 511 q 263 507 221 496 q 179 485 141 472 q 104 459 78 447 q 52 435 52 429 z m 312 514 q 312 513 314 503 q 316 493 316 486 q 316 475 304 454 q 293 434 259 382 q 226 331 202 292 q 178 252 145 191 q 135 171 131 165 q 127 158 118 142 q 110 126 106 115 q 102 104 102 98 q 102 85 116 80 q 130 75 156 75 q 222 75 296 99 q 371 124 436 167 q 501 209 540 264 q 579 318 579 377 q 579 444 530 481 q 480 517 386 517 q 347 517 312 514 z"},"^":{"x_min":0,"x_max":469,"ha":469,"o":"m 233 551 l 116 259 l 26 259 l 199 650 l 269 650 l 443 259 l 354 259 z"},"0":{"x_min":0,"x_max":438,"ha":438,"o":"m 433 567 q 456 557 467 533 q 477 510 477 465 q 477 396 449 316 q 422 237 372 167 q 323 97 259 52 q 187 1 141 1 q 105 1 74 22 q 43 44 24 84 q 6 124 6 177 q 6 251 47 333 q 87 415 150 480 q 213 546 281 582 q 349 618 398 607 q 430 600 433 567 z m 321 471 l 338 507 q 309 492 287 478 q 265 464 237 438 q 208 412 177 373 q 126 308 100 247 q 74 187 74 144 q 74 83 115 83 q 139 83 182 108 q 226 134 275 178 q 322 221 357 274 q 393 328 411 379 q 430 431 430 468 q 430 491 420 504 q 410 517 394 517 q 379 517 363 506 q 347 495 321 471 z"},"F":{"x_min":0,"x_max":563,"ha":563,"o":"m 324 243 l 398 243 q 462 329 495 393 q 529 457 529 477 q 529 505 481 505 q 453 502 382 493 q 312 483 245 470 q 186 459 150 447 q 114 435 99 427 q 84 419 81 416 q 117 418 142 418 q 181 418 181 409 q 181 405 154 399 q 126 393 102 386 q 78 379 55 370 q 33 361 28 361 q 17 361 9 369 q 2 378 2 390 q 2 398 15 433 q 29 468 53 504 q 78 539 114 556 q 127 562 198 579 q 269 596 358 609 q 448 623 522 623 q 567 623 594 611 q 621 598 621 557 q 621 544 611 516 q 602 489 580 446 q 559 403 529 352 q 498 300 459 243 l 534 243 l 469 150 q 456 149 436 148 q 417 148 393 147 q 333 69 263 0 q 193 -69 136 -110 q 79 -152 56 -152 q 47 -152 40 -146 q 33 -140 33 -130 q 33 -122 55 -87 q 77 -53 115 -23 q 154 6 203 10 q 223 31 238 47 q 252 63 278 94 q 305 125 319 142 l 172 135 q 148 134 139 137 q 130 140 130 153 q 130 153 135 165 q 140 178 145 187 q 153 201 157 204 q 162 207 184 212 l 274 234 q 310 243 324 243 z"},"`":{"x_min":0,"x_max":333,"ha":333,"o":"m 259 445 q 243 445 219 476 q 190 514 173 541 q 156 568 156 583 q 156 604 187 604 q 215 604 231 587 q 247 569 264 523 q 280 481 280 467 q 280 458 274 451 q 268 445 259 445 z"},"k":{"x_min":0,"x_max":365,"ha":365,"o":"m 376 154 l 376 121 q 321 57 284 24 q 247 -9 222 -9 q 198 -9 179 5 q 160 20 144 44 q 129 69 108 114 q 83 83 63 56 q 43 30 35 21 q 27 12 21 12 q 8 12 2 29 q -4 46 -4 78 q -4 122 7 163 q 17 204 37 242 q 57 281 88 325 q 119 370 157 419 q 210 486 249 529 q 288 572 316 594 q 345 615 364 615 q 387 615 387 594 q 387 576 301 464 q 214 352 49 158 l 49 116 q 160 235 227 292 q 295 350 332 350 q 347 350 355 332 q 364 314 364 291 q 364 243 323 202 q 282 162 197 109 q 211 87 223 77 q 234 67 251 67 q 266 67 284 77 q 301 87 320 103 q 338 119 376 154 z m 183 129 q 202 141 229 167 q 257 192 276 220 q 296 248 296 266 q 296 274 289 274 q 271 274 225 238 q 180 203 137 147 q 156 147 183 129 z"},"u":{"x_min":0,"x_max":385,"ha":385,"o":"m 238 187 q 167 93 130 54 q 93 14 70 14 q 51 14 36 30 q 20 45 11 71 q 3 97 3 127 q 3 146 7 162 q 10 178 21 197 q 31 215 48 237 q 64 259 89 287 q 104 304 114 316 q 124 328 133 332 q 143 336 164 336 q 180 336 194 332 q 208 328 208 323 q 208 314 194 292 q 179 269 147 236 q 115 203 73 171 q 64 142 64 127 q 64 106 80 106 q 86 106 100 116 q 113 126 146 155 q 178 183 204 205 q 223 222 248 255 q 273 288 289 304 q 325 342 338 354 q 352 365 364 365 q 375 365 380 358 q 384 351 384 328 q 384 318 382 312 q 380 305 374 295 q 368 285 349 258 q 331 231 305 195 q 292 175 281 152 q 271 129 271 117 q 271 92 291 92 q 308 92 330 105 q 352 119 397 155 l 397 122 q 340 69 312 45 q 285 21 265 9 q 245 -3 227 -3 q 186 -3 186 46 q 186 64 198 96 q 210 127 238 187 z"},"]":{"x_min":0,"x_max":365,"ha":365,"o":"m 266 670 q 286 658 299 654 q 312 649 334 649 q 359 649 397 658 q 435 668 438 668 q 468 668 468 615 q 468 567 439 500 q 410 433 366 358 q 322 283 223 122 q 176 46 139 -19 q 101 -83 73 -132 q 45 -181 11 -243 q -19 -241 -37 -241 q -54 -240 -87 -240 q -125 -240 -166 -245 q -146 -197 -134 -175 q -123 -153 -108 -142 q -94 -130 -74 -130 q -53 -130 -29 -136 q -4 -142 0 -142 q 72 -15 167 146 q 263 307 298 370 q 333 433 346 473 q 352 493 356 514 q 328 504 309 500 q 291 495 270 495 q 233 495 190 517 q 215 558 225 574 q 234 590 247 617 q 259 644 266 670 z"},"U":{"x_min":0,"x_max":625,"ha":625,"o":"m 599 385 q 551 314 519 257 q 486 200 469 160 q 453 120 453 100 q 453 64 485 64 q 519 64 637 156 l 636 122 q 499 -18 435 -18 q 359 -18 359 61 q 359 108 405 195 q 452 282 547 420 q 435 298 360 219 q 285 141 205 67 q 186 49 170 34 q 155 19 139 10 q 124 2 105 2 q 76 2 57 24 q 38 47 38 88 q 38 114 54 149 q 69 184 101 230 q 133 277 179 332 q 254 422 283 459 q 312 497 312 507 q 312 514 304 514 q 295 514 273 506 q 251 497 216 478 q 180 458 124 423 q 82 396 41 380 q 0 364 -16 364 q -26 364 -32 369 q -39 375 -39 383 q -39 395 -29 421 q -19 448 -2 476 q 14 505 27 519 q 62 558 123 588 q 184 618 249 634 q 313 650 355 650 q 386 650 401 639 q 415 629 415 605 q 415 553 402 524 q 389 496 358 450 q 347 433 324 402 q 302 372 280 343 q 257 313 242 294 q 228 274 212 251 q 169 188 158 170 q 147 152 147 139 q 147 122 163 122 q 178 122 191 133 q 205 143 250 182 q 302 227 351 275 q 399 324 439 368 q 479 413 541 483 q 610 563 629 583 q 648 603 660 603 q 671 603 679 586 q 688 568 688 537 q 688 521 671 493 q 654 465 599 385 z"},"o":{"x_min":0,"x_max":313,"ha":313,"o":"m 322 155 l 322 122 q 290 93 270 83 q 250 73 214 75 q 150 0 102 0 q 75 0 52 18 q 30 36 16 67 q 3 99 3 137 q 3 168 24 207 q 44 245 77 278 q 110 311 148 331 q 186 351 218 351 q 241 351 254 344 q 267 337 267 324 q 267 314 256 302 q 274 298 281 289 q 288 280 288 256 q 288 232 277 197 q 266 161 247 130 l 256 121 l 263 121 q 271 121 280 125 q 288 129 294 134 q 300 139 322 155 z m 221 283 q 181 259 152 239 q 123 219 103 199 q 83 179 76 158 q 64 104 64 99 q 64 67 109 67 q 130 67 179 103 q 171 126 171 147 q 171 178 184 210 q 196 242 221 283 z"},"N":{"x_min":0,"x_max":573,"ha":573,"o":"m 107 189 q 194 332 238 414 q 281 497 281 519 q 281 527 275 533 q 269 538 261 538 q 246 538 176 509 q 118 484 91 470 q 64 456 17 429 q -30 402 -37 402 q -51 402 -51 421 q -51 457 -3 518 q 44 579 124 625 q 134 631 134 624 q 134 622 122 613 q 110 604 101 595 q 92 586 81 568 q 184 619 232 640 q 280 661 314 661 q 344 661 361 649 q 378 636 378 613 q 378 592 362 553 q 345 514 314 458 q 283 402 250 348 q 218 293 133 150 q 228 269 307 357 q 387 446 446 502 q 505 558 545 586 q 586 614 605 614 q 612 614 621 601 q 630 588 638 569 q 645 551 645 539 q 645 507 629 475 q 612 443 580 399 q 488 275 446 204 q 404 132 404 89 q 404 56 438 56 q 454 56 475 68 q 496 80 525 104 q 554 128 584 157 l 585 119 q 543 76 510 46 q 477 15 447 -8 q 417 -31 394 -42 q 371 -54 353 -54 q 328 -54 312 -37 q 297 -20 297 9 q 297 35 308 73 q 320 110 344 159 q 367 208 402 265 q 437 322 481 384 q 524 445 524 463 q 524 473 513 473 q 470 473 315 300 q 305 289 281 260 q 257 231 232 198 q 207 166 175 125 q 144 84 112 42 q 97 22 86 22 q 74 22 55 41 q 36 60 36 69 q 36 79 63 120 q 90 161 107 189 z"},"+":{"x_min":0,"x_max":667,"ha":667,"o":"m 83 267 l 83 344 l 312 344 l 312 574 l 389 574 l 389 344 l 619 344 l 619 267 l 389 267 l 389 40 l 312 40 l 312 267 z"},"G":{"x_min":0,"x_max":563,"ha":563,"o":"m 573 156 l 573 130 q 518 83 463 40 q 408 -2 330 -55 q 290 -110 261 -145 q 232 -180 211 -203 q 190 -226 190 -226 q 183 -234 167 -243 q 151 -251 140 -251 q 125 -251 115 -240 q 105 -229 105 -214 q 105 -175 146 -131 q 187 -86 266 -40 q 305 16 341 73 q 376 130 403 177 q 430 224 452 269 q 417 240 382 213 q 348 186 314 161 q 281 136 273 130 q 266 125 260 120 q 175 46 133 46 q 93 46 65 84 q 38 122 38 180 q 38 217 50 257 q 62 296 86 338 q 110 380 144 419 q 177 458 218 491 q 280 541 358 580 q 436 620 502 640 q 569 661 601 661 q 620 661 631 652 q 642 643 646 628 q 651 612 651 595 q 651 580 641 564 q 627 543 591 520 q 556 497 520 479 q 483 461 478 461 q 475 461 475 463 q 475 467 486 477 q 498 487 511 497 q 542 520 547 546 q 500 533 453 511 q 406 490 360 460 q 314 430 268 392 q 216 349 180 302 q 144 254 125 214 q 106 174 106 153 q 106 137 116 125 q 126 113 144 113 q 165 113 195 131 q 228 150 267 181 q 306 211 339 239 q 373 266 411 299 q 447 329 467 347 q 486 365 496 379 q 517 407 537 412 q 557 416 572 404 q 586 391 586 373 q 586 367 565 327 q 543 288 500 212 q 456 137 392 34 q 449 64 573 156 z"},"q":{"x_min":0,"x_max":375,"ha":375,"o":"m 364 331 q 364 318 357 308 q 359 304 364 296 q 369 288 371 283 q 374 277 374 272 q 374 265 362 245 q 351 226 320 180 q 290 135 260 91 l 283 76 q 342 113 385 157 l 385 122 q 346 75 306 38 q 310 18 310 12 q 310 -37 264 -99 q 217 -162 159 -209 q 100 -257 77 -257 q 41 -257 41 -193 q 41 -173 69 -125 q 98 -77 149 -3 q 201 70 281 180 q 185 86 161 63 q 137 41 114 24 q 90 8 72 8 q 53 8 37 29 q 21 50 11 79 q 2 107 2 129 q 2 154 8 171 q 14 188 32 209 q 72 259 128 295 q 184 332 240 349 q 295 366 336 366 q 364 366 364 331 z m 74 90 q 95 90 125 106 q 155 123 190 155 q 233 193 265 226 q 297 258 313 278 q 329 298 329 301 q 329 305 325 305 q 310 305 261 284 q 212 264 161 232 q 110 201 84 170 q 74 158 66 135 q 59 111 59 104 q 59 90 74 90 z m 217 26 q 182 -25 147 -91 q 113 -156 113 -166 q 113 -173 120 -172 q 127 -171 142 -164 q 174 -150 215 -97 q 243 -61 251 -37 q 260 -13 263 17 q 234 12 217 26 z"},"d":{"x_min":0,"x_max":417,"ha":417,"o":"m 231 153 q 188 104 154 70 q 120 36 99 19 q 78 2 70 2 q 57 2 41 22 q 25 43 14 75 q 3 106 3 139 q 3 187 49 235 q 95 283 153 314 q 212 346 241 346 q 265 346 288 316 q 326 395 360 456 q 394 517 417 546 q 439 576 449 576 q 460 576 469 566 q 478 555 478 542 q 478 517 441 455 q 404 393 368 334 q 332 276 306 219 q 280 162 280 114 q 280 70 308 70 q 325 70 351 89 q 377 108 425 154 l 425 118 q 319 -18 262 -18 q 239 -18 229 0 q 219 17 219 52 q 219 99 231 153 z m 267 272 q 224 257 165 225 q 106 192 94 180 q 83 170 75 144 q 67 117 67 103 q 67 95 72 89 q 77 84 84 84 q 91 84 100 90 q 108 96 128 113 q 147 130 153 135 q 161 142 190 166 q 218 190 231 204 q 245 218 254 235 q 263 251 267 272 z"},"1":{"x_min":0,"x_max":271,"ha":271,"o":"m 98 467 l 98 507 q 116 522 134 537 q 152 552 174 569 q 196 586 220 602 q 244 617 274 634 q 301 595 301 559 q 301 540 292 516 q 284 492 270 461 q 255 430 234 384 q 176 256 148 174 q 119 91 119 61 q 119 59 123 42 q 126 25 126 17 q 126 3 118 2 q 110 1 95 8 q 58 26 45 43 q 32 60 32 86 q 32 133 67 233 q 84 283 108 333 q 131 383 160 434 q 188 485 214 528 q 159 505 98 467 z"},"5":{"x_min":0,"x_max":427,"ha":427,"o":"m 243 591 q 327 587 372 587 q 438 587 498 590 q 477 544 457 514 q 438 484 430 481 q 417 477 335 477 q 259 477 226 478 q 171 432 138 362 q 229 393 275 393 q 334 393 367 359 q 400 326 400 262 q 400 182 347 118 q 295 55 214 20 q 132 -15 48 -15 q 0 -15 -21 0 q -41 15 -41 55 q -41 78 -32 93 q -23 108 -3 121 q 47 154 102 154 q 108 154 108 150 q 108 148 104 146 q 101 144 100 144 q 38 121 38 108 q 38 95 79 95 q 139 95 204 125 q 270 155 314 196 q 358 237 358 263 q 358 283 340 294 q 321 305 287 305 q 254 305 227 300 q 200 294 166 284 q 131 275 123 275 q 107 275 101 289 q 95 301 90 312 q 84 324 80 336 q 77 349 76 357 q 105 462 243 591 z"}}}
